<svg xmlns:xlink="http://www.w3.org/1999/xlink" xmlns="http://www.w3.org/2000/svg" width="128" height="32" viewBox="0 0 128 32" fill="none">
<path d="M74.5843 30.3744C73.9914 30.3744 73.257 30.3744 72.8191 30.226C72.6708 28.1754 72.5226 19.5143 72.6708 11.8786C73.5534 11.5885 74.1396 11.4401 74.8807 11.4401C78.1215 11.4401 79.8867 15.258 79.8867 19.9595C79.8867 25.8347 77.6768 30.3811 74.5843 30.3744ZM77.9733 9.09949C76.1205 9.06577 74.2946 9.52445 72.6776 10.4216C72.6776 5.72681 72.6776 1.47049 72.8258 0L62.9688 1.76729V2.63744L63.9929 2.77909C65.3134 3.07589 65.7581 3.80438 66.0478 5.56492C66.3443 9.086 66.196 27.8786 66.0478 30.9545C68.6957 31.5413 71.4918 31.9798 74.2878 31.9798C82.0832 31.9798 86.7927 27.1366 86.7927 19.5008C86.7927 13.484 82.9658 9.07926 77.9665 9.07926" fill="#000000"/>
<path d="M17.0662 2.77908C21.0414 2.77908 23.1031 5.27487 24.5719 9.67959L26.0406 9.24114L25.8924 0.580093H0V1.90218L1.46879 2.05058C3.38225 2.34063 4.11664 3.52107 4.40636 6.30691C4.85104 11.5953 4.70281 21.1332 4.40636 25.6796C4.11664 28.4722 3.38225 29.7875 1.46879 29.9359L0 30.2327V31.3997H16.6215V30.2327L14.8563 29.9359C12.9428 29.7875 12.2084 28.4722 11.912 25.6796C11.7638 23.7706 11.6155 20.688 11.6155 16.8701L15.146 17.0118C17.3559 17.0118 18.38 18.7791 18.8247 21.2681H20.152V10.8533H18.8247C18.38 13.3491 17.3559 15.1096 15.146 15.1096L11.6155 15.258C11.6155 10.2664 11.7638 5.57166 11.912 2.77908H17.0662Z" fill="#000000"/>
<path d="M34.1383 30.5228C31.194 30.5228 29.7252 25.9764 29.7252 20.398C29.7252 14.6712 30.6078 10.2732 33.8419 10.2732C36.9344 10.2732 38.4032 14.8196 38.4032 20.398C38.4032 26.1181 37.5206 30.5228 34.1383 30.5228ZM34.2865 8.80273C26.9291 8.80273 22.8125 14.0844 22.8125 20.398C22.8125 27.0017 26.4912 31.9933 33.8419 31.9933C41.1925 31.9933 45.3159 26.7049 45.3159 20.398C45.3159 13.7876 41.6372 8.80273 34.2865 8.80273Z" fill="#000000"/>
<path d="M95.4754 17.7538C95.6237 14.3812 96.9442 10.2665 99.4439 10.2665C101.943 10.2665 102.388 14.6712 102.388 17.6054L95.4754 17.7538ZM100.037 8.80274C92.5311 8.80274 88.7109 14.5296 88.7109 20.5464C88.7109 27.2985 93.4205 31.9933 100.037 32C104.153 32 107.394 29.9427 108.863 27.8854L108.277 27.1501C106.801 28.1754 105.629 28.7555 103.271 28.7555C97.9751 28.7555 95.3272 24.7893 95.4754 19.3592H109.159C109.159 13.3424 106.215 8.796 100.037 8.80274Z" fill="#000000"/>
<path d="M122.549 18.1923C118.425 16.5869 116.957 15.5548 116.957 13.6459C116.957 11.737 118.284 10.4149 120.049 10.4149C122.69 10.4149 124.455 12.027 125.783 15.9933L126.814 15.6965L126.665 9.97643C124.9 9.24118 122.549 8.80273 119.901 8.80273C114.457 8.80273 111.075 12.0338 111.075 15.8449C111.075 19.656 113.574 21.2749 117.112 22.4486C120.79 23.7707 121.821 24.796 121.821 26.5633C121.821 28.3306 120.494 29.936 118.142 29.936C115.346 29.936 113.291 28.3306 111.668 23.9191L110.637 24.2159L110.785 30.6712C112.55 31.4064 115.791 31.9933 118.58 31.9933C124.321 31.9933 127.999 29.0523 127.999 24.5059C127.993 21.4233 126.369 19.6628 122.549 18.1923Z" fill="#000000"/>
<path d="M55.1658 13.9356L55.3141 8.79559L45.457 10.7045V11.5882L46.4879 11.7366C47.8084 11.885 48.4013 12.6135 48.5496 14.5224C48.846 18.0435 48.6978 24.2087 48.5496 27.2914C48.4081 29.0587 47.8152 29.9423 46.5014 30.084L45.4705 30.2324V31.406H59.1545V30.2324L57.3892 30.084C55.9204 29.9356 55.4758 29.0587 55.3275 27.2981C55.0311 24.5055 55.0311 18.9271 55.1793 15.406C55.9137 14.3808 59.1477 13.4971 62.092 15.406L64.4502 9.38919C61.9506 7.92544 57.5375 8.65394 55.1861 13.9423" fill="#000000"/>
</svg>