<svg xmlns:xlink="http://www.w3.org/1999/xlink" xmlns="http://www.w3.org/2000/svg" width="600" height="156" viewBox="0 0 600 156" fill="none">
<path d="M56.0082 76.7666C51.9354 75.1074 47.0856 74.28 41.4588 74.28H28.1892C26.7813 74.28 25.602 73.8047 24.6467 72.8493C23.6914 71.894 23.216 70.7147 23.216 69.3068C23.216 68.0041 23.6914 66.8933 24.6467 65.9883C25.602 65.0832 26.7813 64.6307 28.1892 64.6307H61.8133V45.9354H24.5736C20.0483 45.9354 15.9024 47.0416 12.1359 49.2539C8.36489 51.4663 5.39832 54.378 3.24082 57.9982C1.07875 61.6184 0 65.6363 0 70.061C0 75.793 1.17931 80.4417 3.54251 84.0071C5.9057 87.577 9.12367 90.187 13.1918 91.8463C17.2646 93.5056 21.8081 94.3329 26.8362 94.3329H40.4074C41.413 94.3329 42.3135 94.5569 43.1226 95.0094C43.9271 95.4619 44.5762 96.0927 45.0835 96.8927C45.5863 97.6971 45.8377 98.6022 45.8377 99.6078C45.8377 100.513 45.5863 101.368 45.0835 102.172C44.5807 102.977 43.9271 103.603 43.1226 104.055C42.3181 104.508 41.413 104.732 40.4074 104.732H3.16312V123.276H43.7214C48.4432 123.276 52.6942 122.17 56.4607 119.958C60.2317 117.75 63.244 114.783 65.5067 111.063C67.7693 107.346 68.8983 103.223 68.8983 98.6982C68.8983 92.9708 67.7693 88.2947 65.5067 84.6744C63.244 81.0542 60.0763 78.4168 56.0082 76.7575V76.7666Z" fill="#000000"/>
<path d="M103.728 27.0847H80.2059V45.9308H67.5397V65.0787H80.2059V100.664C80.2059 107.598 82.2171 113.101 86.235 117.174C90.2529 121.247 95.8341 123.281 102.969 123.281H124.983V103.681H108.098C106.891 103.681 105.858 103.255 105.008 102.401C104.153 101.546 103.728 100.517 103.728 99.3107V65.0832H124.988V45.9354H103.728V27.0847Z" fill="#000000"/>
<path d="M598.358 113.115C597.265 112.023 595.967 111.479 594.458 111.479C592.95 111.479 591.647 112.023 590.555 113.115C589.462 114.208 588.918 115.506 588.918 117.019C588.918 118.532 589.462 119.83 590.555 120.918C591.647 122.01 592.946 122.554 594.458 122.554C595.519 122.554 596.47 122.303 597.311 121.8C598.152 121.297 598.805 120.625 599.281 119.784C599.756 118.948 599.994 118.024 599.994 117.014C599.994 115.506 599.45 114.203 598.358 113.11V113.115Z" fill="#000000"/>
<path d="M190.952 49.4734C184.868 45.908 177.508 44.1208 168.865 44.1208C160.221 44.1208 152.908 45.9309 146.627 49.5511C140.342 53.1713 135.492 58.0714 132.078 64.2513C128.658 70.4313 126.953 77.4432 126.953 85.2824C126.953 93.1216 128.412 99.585 131.328 105.564C134.244 111.547 138.312 116.296 143.542 119.812C148.766 123.331 154.8 125.091 161.633 125.091C165.953 125.091 169.701 124.488 172.864 123.281C176.027 122.074 178.72 120.392 180.932 118.23C183.14 116.068 184.95 113.632 186.362 110.916H186.966V123.281H209.885V84.8344C209.885 77.1963 208.248 70.285 204.985 64.1005C201.716 57.9205 197.04 53.0433 190.961 49.4734H190.952ZM183.94 94.9363C182.532 98.0537 180.493 100.49 177.833 102.25C175.168 104.01 172.078 104.887 168.559 104.887C165.039 104.887 161.775 104.01 159.06 102.25C156.345 100.495 154.283 98.0537 152.88 94.9363C151.472 91.8235 150.768 88.3541 150.768 84.5328C150.768 80.7114 151.472 77.4477 152.88 74.4309C154.288 71.414 156.349 69.028 159.06 67.2682C161.775 65.5084 164.938 64.6307 168.559 64.6307C172.179 64.6307 175.168 65.5129 177.833 67.2682C180.493 69.028 182.532 71.414 183.94 74.4309C185.348 77.4477 186.052 80.8165 186.052 84.5328C186.052 88.249 185.348 91.8235 183.94 94.9363Z" fill="#000000"/>
<path d="M226.609 52.1154C222.587 56.1378 220.58 61.6641 220.58 68.6989V123.281H243.951V70.2073C243.951 68.6989 244.454 67.4693 245.46 66.5139C246.465 65.5586 247.668 65.0832 249.08 65.0832H265.814V46.0862H243.348C236.208 46.0862 230.632 48.0975 226.614 52.1154H226.609Z" fill="#000000"/>
<path d="M311.342 27.0847H287.819V45.9308H275.153V65.0787H287.819V100.664C287.819 107.598 289.831 113.101 293.848 117.174C297.866 121.247 303.447 123.281 310.583 123.281H332.597V103.681H315.711C314.505 103.681 313.472 103.255 312.621 102.401C311.767 101.546 311.342 100.517 311.342 99.3107V65.0832H332.601V45.9354H311.342V27.0847Z" fill="#000000"/>
<path d="M394.269 89.8076C394.269 92.5228 393.616 95.0094 392.308 97.272C391.001 99.5347 389.218 101.345 386.956 102.702C384.693 104.06 382.156 104.736 379.34 104.736C376.525 104.736 373.837 104.06 371.574 102.702C369.312 101.345 367.529 99.5347 366.222 97.272C364.915 95.0094 364.261 92.5228 364.261 89.8076V45.9308H340.889V90.411C340.889 96.8469 342.448 102.698 345.566 107.977C348.678 113.252 353.126 117.425 358.908 120.493C364.686 123.56 371.547 125.091 379.491 125.091C387.436 125.091 394.393 123.555 400.074 120.493C405.752 117.425 410.103 113.257 413.115 107.977C416.132 102.702 417.641 96.8469 417.641 90.411V45.9308H394.269V89.8076Z" fill="#000000"/>
<path d="M500.339 55.9596C496.769 52.1885 492.445 49.2768 487.371 47.2153C482.293 45.1584 476.488 44.1253 469.956 44.1253C461.609 44.1253 454.323 45.8577 448.093 49.3271C441.858 52.7965 437.036 57.6463 433.617 63.8765C430.197 70.1113 428.488 77.498 428.488 86.0412V156H451.859V114.838H452.312C453.82 117.051 455.704 118.911 457.966 120.419C460.229 121.928 462.738 123.084 465.504 123.889C468.269 124.693 471.208 125.096 474.326 125.096C481.662 125.096 488.093 123.436 493.624 120.118C499.151 116.799 503.502 112.201 506.665 106.323C509.828 100.444 511.415 93.6838 511.415 86.0412C511.415 79.9115 510.459 74.3075 508.549 69.2291C506.638 64.1553 503.9 59.7306 500.33 55.9596H500.339ZM485.415 94.7855C483.957 97.8023 481.923 100.188 479.308 101.948C476.693 103.708 473.581 104.586 469.96 104.586C466.34 104.586 463.2 103.708 460.535 101.948C457.87 100.193 455.836 97.8023 454.428 94.7855C453.02 91.7686 452.316 88.3541 452.316 84.5328C452.316 80.7114 453.02 77.274 454.428 74.2024C455.836 71.1352 457.87 68.7263 460.535 66.9665C463.195 65.2112 466.34 64.329 469.96 64.329C473.581 64.329 476.693 65.2112 479.308 66.9665C481.923 68.7263 483.957 71.1398 485.415 74.2024C486.868 77.2695 487.6 80.7114 487.6 84.5328C487.6 88.3541 486.868 91.7686 485.415 94.7855Z" fill="#000000"/>
<path d="M572.259 76.7666C568.186 75.1074 563.336 74.28 557.709 74.28H544.44C543.032 74.28 541.853 73.8047 540.897 72.8493C539.942 71.894 539.467 70.7147 539.467 69.3068C539.467 68.0041 539.942 66.8933 540.897 65.9883C541.853 65.0832 543.032 64.6307 544.44 64.6307H578.064V45.9354H540.824C536.299 45.9354 532.153 47.0416 528.387 49.2539C524.615 51.4663 521.649 54.378 519.491 57.9982C517.329 61.6184 516.251 65.6363 516.251 70.061C516.251 75.793 517.43 80.4417 519.793 84.0071C522.152 87.577 525.37 90.187 529.442 91.8463C533.515 93.5056 538.059 94.3329 543.087 94.3329H556.658C557.664 94.3329 558.564 94.5569 559.373 95.0094C560.178 95.4619 560.831 96.0927 561.334 96.8927C561.837 97.6971 562.088 98.6022 562.088 99.6078C562.088 100.513 561.837 101.368 561.334 102.172C560.831 102.977 560.178 103.603 559.373 104.055C558.569 104.508 557.664 104.732 556.658 104.732H519.418V123.276H559.977C564.698 123.276 568.949 122.17 572.716 119.958C576.487 117.75 579.499 114.783 581.762 111.063C584.024 107.346 585.154 103.223 585.154 98.6982C585.154 92.9708 584.024 88.2947 581.762 84.6744C579.499 81.0542 576.331 78.4168 572.263 76.7575L572.259 76.7666Z" fill="#000000"/>
</svg>