<svg width="2209" height="443" viewBox="0 0 2209 443" fill="none" xmlns="http://www.w3.org/2000/svg">
<path d="M823.489 293.486H796.86L712.294 195.43C712.294 195.43 710.356 195.103 710.356 196.083V293.486H678.693V138.536C678.693 138.536 679.172 137.405 679.826 137.405H704.667C704.667 137.405 705.322 137.405 705.649 137.883L789.889 238.2C789.889 238.2 791.827 238.527 791.827 237.547V153.262C791.827 144.341 798.975 137.204 807.909 137.204H822.356C822.356 137.204 823.489 137.682 823.489 138.335V293.486Z" fill="white"/>
<path d="M970.726 293.486H876.091C866.678 293.486 859.203 285.871 859.203 276.624V137.229H970.248V165.927H890.866V201.109H949.785V229.304H890.866V264.813H970.726V293.511V293.486Z" fill="white"/>
<path d="M1138.58 223.625C1138.58 267.376 1111.8 297.054 1071.38 297.054C1030.95 297.054 1002.54 267.401 1002.54 223.625V137.229H1018.62C1027.23 137.229 1034.2 144.19 1034.2 152.785V223.449C1034.2 249.534 1048.98 266.572 1071.22 266.572C1093.47 266.572 1106.61 249.559 1106.61 223.449V137.229H1138.27V223.449L1138.6 223.6L1138.58 223.625Z" fill="white"/>
<path d="M1259.69 293.486L1215.37 236.115H1198.8V293.486H1167.14V153.765C1167.14 144.693 1174.62 137.229 1183.7 137.229H1234.85C1268.45 137.229 1290.85 157.006 1290.85 186.659C1290.85 212.744 1277.71 231.39 1250.43 235.436L1298.47 293.46H1259.69V293.486ZM1234.69 207.417C1249.47 207.417 1259.21 198.998 1259.21 186.659C1259.21 174.321 1249.47 165.902 1234.69 165.902H1198.83V207.391H1234.69V207.417Z" fill="white"/>
<path d="M1798.95 293.486L1754.63 236.115H1738.07V293.486H1706.41V153.765C1706.41 144.693 1713.88 137.229 1722.97 137.229H1774.11C1807.71 137.229 1830.11 157.006 1830.11 186.659C1830.11 212.744 1816.97 231.39 1789.69 235.436L1837.74 293.46H1798.95V293.486ZM1773.96 207.417C1788.73 207.417 1798.47 198.998 1798.47 186.659C1798.47 174.321 1788.73 165.902 1773.96 165.902H1738.09V207.391H1773.96V207.417Z" fill="white"/>
<path d="M1484.19 215.684C1484.19 261.068 1448 297.054 1401.89 297.054C1355.78 297.054 1319.59 261.244 1319.59 215.684C1319.59 170.124 1355.78 133.837 1401.89 133.837C1448 133.837 1484.19 170.149 1484.19 215.684ZM1452.38 215.684C1452.38 185.855 1430.31 163.666 1402.07 163.666C1373.83 163.666 1351.75 185.88 1351.75 215.684C1351.75 245.488 1373.83 267.225 1402.07 267.225C1430.31 267.225 1452.38 245.513 1452.38 215.684Z" fill="white"/>
<path d="M1661.46 202.391C1668.93 202.391 1674.92 208.547 1674.92 215.835C1674.92 262.199 1638.22 296.878 1591.96 296.878C1545.7 296.878 1509.01 261.219 1509.01 215.357C1509.01 169.496 1545.2 133.837 1591.16 133.837C1624.1 133.837 1659.34 154.594 1670.21 179.874H1630.45C1623.3 169.018 1608.2 163.666 1591.16 163.666C1563.25 163.666 1541.32 186.031 1541.32 215.357C1541.32 244.684 1563.9 267.376 1593.1 267.376C1622.29 267.376 1641.47 244.834 1640.01 223.122H1585.14V210.005C1585.14 205.783 1588.54 202.391 1592.77 202.391H1661.46Z" fill="white"/>
<path d="M1983.04 293.486L1969.57 260.088H1900.58L1886.79 293.486H1852.54L1915.84 147.281C1918.43 141.275 1924.44 137.405 1930.94 137.405H1949.76L2017.47 293.661H1983.21L1983.04 293.486ZM1933.2 180.176L1912.26 231.39H1957.72L1936.93 180.176C1936.27 178.568 1934.01 178.568 1933.2 180.176Z" fill="white"/>
<path d="M2209 293.486H2178.17V211.161C2178.17 209.226 2175.58 208.573 2174.59 210.181L2129.14 293.486H2114.84L2065.66 203.697V293.486H2034.83V137.229H2062.59L2121.84 245.186L2175.25 148.261C2178.97 141.451 2186.12 137.229 2193.92 137.229H2208.85V293.486H2209Z" fill="white"/>
<mask id="path-2-outside-1_526_5" maskUnits="userSpaceOnUse" x="0" y="0" width="543" height="443" fill="black">
<rect fill="white" width="543" height="443"/>
<path d="M537.924 212.14L468.66 78.5764C467.603 76.5912 465.942 74.9578 463.903 73.9777L321.549 4.09218C319.536 3.11212 317.245 2.78544 315.03 3.13726L176.729 26.5078C174.816 26.8345 172.953 27.4627 171.242 28.3674L82.5473 75.586C80.6848 76.5912 79.0489 77.9733 77.7904 79.6821L5.4556 176.557C3.16525 179.623 2.43536 183.543 3.4421 187.237L33.1915 295.018C34.0976 298.26 36.9165 300.597 40.2891 300.848L133.967 307.91C136.056 308.06 137.969 309.191 139.101 310.95L167.064 353.47C168.347 355.405 170.185 356.887 172.349 357.691L249.416 386.766C251.127 387.42 253.015 387.495 254.777 386.967L316.39 370.608C318.202 370.08 320.165 370.709 321.348 372.216L369.269 436.975C372.516 441.147 378.858 440.971 381.879 436.649L402.794 406.041C404.153 403.98 406.066 402.322 408.306 401.241L455.119 378.851C456.529 378.172 457.712 377.066 458.442 375.684L485.02 326.355C485.725 325.073 486.807 324.043 488.141 323.44L509.408 315.172C511.044 314.443 512.278 313.011 512.756 311.277L538.805 220.408C539.586 217.619 539.258 214.653 537.899 212.115L537.924 212.14ZM467.251 106.646L511.9 196.661C512.378 197.616 512.756 198.646 512.907 199.726C513.561 204.225 510.969 207.466 505.91 207.441L403.574 200.455C398.364 200.103 395.52 194.248 398.44 189.926L455.598 105.817C458.492 101.545 464.96 101.972 467.251 106.621V106.646ZM204.062 35.8309L307.128 17.9637C311.884 17.1345 316.792 17.8381 321.121 19.9741L441.805 79.5816C447.468 82.3961 449.406 89.5078 445.908 94.7851L383.112 189.599C380.167 194.047 373.976 194.902 369.923 191.434L201.092 46.5613C197.14 43.1688 198.927 36.7105 204.062 35.8058V35.8309ZM184.883 68.6251C185.538 62.7699 192.459 59.9554 197.04 63.6997L354.042 194.776C358.446 198.369 357.364 205.406 352.054 207.491L172.878 278.181C167.643 280.242 162.08 275.995 162.71 270.416L184.858 68.6251H184.883ZM101.021 291.6L52.8734 289.163C49.677 288.937 46.5812 286.097 45.348 282.478L29.5924 226.64C28.5605 219.428 37.143 214.905 42.5291 219.805L106.432 278.081C111.768 282.931 108.219 291.776 101.021 291.6ZM134.445 282.755L27.4782 188.72C22.7968 184.598 22.0418 177.562 25.7416 172.561L83.7806 94.0563C86.4485 90.4628 89.9217 87.5226 93.9235 85.5122L162.684 50.7328C167.441 48.3203 172.928 52.2154 172.274 57.4675L144.236 279.061C143.632 283.76 138.019 285.896 134.445 282.755ZM252.839 366.185C250.876 368.924 247.302 370.03 244.13 368.849L187.526 347.866C181.284 345.554 176.024 341.206 172.601 335.502L155.788 307.608C153.649 304.065 155.234 299.441 159.11 297.958L336.952 229.203C342.842 226.917 348.077 233.677 344.402 238.803L252.864 366.185H252.839ZM323.689 352.062L291.875 362.491C285.331 364.627 279.87 357.164 283.897 351.61L365.796 238.376C368.64 234.204 375.083 235.561 376.039 240.487L389.001 308.085C389.656 311.453 388.095 314.87 385.125 316.604L326.407 350.906C325.551 351.409 324.62 351.786 323.638 352.062H323.689ZM389.479 402.975L381.803 414.509C378.883 418.882 372.465 418.932 369.496 414.61L337.959 368.799C335.744 365.582 336.676 361.159 339.998 359.124L381.803 335.778C385.327 333.793 389.731 336.155 390.033 340.201L393.557 387.445C393.96 392.923 392.525 398.376 389.479 402.975ZM463.626 333.818L448.752 364.351C447.896 366.11 446.512 367.592 444.8 368.547L416.334 381.489C412.333 383.726 407.374 380.987 407.148 376.413L405.134 331.657C404.933 327.687 408.104 324.395 412.081 324.395L459.423 326.505C463.173 326.505 465.539 330.576 463.652 333.818H463.626ZM518.721 230.611L500.952 299.592C500.348 301.904 498.737 303.813 496.547 304.819L484.063 310.523C481.597 311.654 478.929 312.232 476.211 312.232H408.859C406.015 312.232 403.599 310.196 403.171 307.457L389.278 222.067C388.674 218.297 391.77 214.955 395.621 215.181L512.781 222.544C516.883 222.795 519.753 226.665 518.746 230.611H518.721Z"/>
</mask>
<path d="M537.924 212.14L468.66 78.5764C467.603 76.5912 465.942 74.9578 463.903 73.9777L321.549 4.09218C319.536 3.11212 317.245 2.78544 315.03 3.13726L176.729 26.5078C174.816 26.8345 172.953 27.4627 171.242 28.3674L82.5473 75.586C80.6848 76.5912 79.0489 77.9733 77.7904 79.6821L5.4556 176.557C3.16525 179.623 2.43536 183.543 3.4421 187.237L33.1915 295.018C34.0976 298.26 36.9165 300.597 40.2891 300.848L133.967 307.91C136.056 308.06 137.969 309.191 139.101 310.95L167.064 353.47C168.347 355.405 170.185 356.887 172.349 357.691L249.416 386.766C251.127 387.42 253.015 387.495 254.777 386.967L316.39 370.608C318.202 370.08 320.165 370.709 321.348 372.216L369.269 436.975C372.516 441.147 378.858 440.971 381.879 436.649L402.794 406.041C404.153 403.98 406.066 402.322 408.306 401.241L455.119 378.851C456.529 378.172 457.712 377.066 458.442 375.684L485.02 326.355C485.725 325.073 486.807 324.043 488.141 323.44L509.408 315.172C511.044 314.443 512.278 313.011 512.756 311.277L538.805 220.408C539.586 217.619 539.258 214.653 537.899 212.115L537.924 212.14ZM467.251 106.646L511.9 196.661C512.378 197.616 512.756 198.646 512.907 199.726C513.561 204.225 510.969 207.466 505.91 207.441L403.574 200.455C398.364 200.103 395.52 194.248 398.44 189.926L455.598 105.817C458.492 101.545 464.96 101.972 467.251 106.621V106.646ZM204.062 35.8309L307.128 17.9637C311.884 17.1345 316.792 17.8381 321.121 19.9741L441.805 79.5816C447.468 82.3961 449.406 89.5078 445.908 94.7851L383.112 189.599C380.167 194.047 373.976 194.902 369.923 191.434L201.092 46.5613C197.14 43.1688 198.927 36.7105 204.062 35.8058V35.8309ZM184.883 68.6251C185.538 62.7699 192.459 59.9554 197.04 63.6997L354.042 194.776C358.446 198.369 357.364 205.406 352.054 207.491L172.878 278.181C167.643 280.242 162.08 275.995 162.71 270.416L184.858 68.6251H184.883ZM101.021 291.6L52.8734 289.163C49.677 288.937 46.5812 286.097 45.348 282.478L29.5924 226.64C28.5605 219.428 37.143 214.905 42.5291 219.805L106.432 278.081C111.768 282.931 108.219 291.776 101.021 291.6ZM134.445 282.755L27.4782 188.72C22.7968 184.598 22.0418 177.562 25.7416 172.561L83.7806 94.0563C86.4485 90.4628 89.9217 87.5226 93.9235 85.5122L162.684 50.7328C167.441 48.3203 172.928 52.2154 172.274 57.4675L144.236 279.061C143.632 283.76 138.019 285.896 134.445 282.755ZM252.839 366.185C250.876 368.924 247.302 370.03 244.13 368.849L187.526 347.866C181.284 345.554 176.024 341.206 172.601 335.502L155.788 307.608C153.649 304.065 155.234 299.441 159.11 297.958L336.952 229.203C342.842 226.917 348.077 233.677 344.402 238.803L252.864 366.185H252.839ZM323.689 352.062L291.875 362.491C285.331 364.627 279.87 357.164 283.897 351.61L365.796 238.376C368.64 234.204 375.083 235.561 376.039 240.487L389.001 308.085C389.656 311.453 388.095 314.87 385.125 316.604L326.407 350.906C325.551 351.409 324.62 351.786 323.638 352.062H323.689ZM389.479 402.975L381.803 414.509C378.883 418.882 372.465 418.932 369.496 414.61L337.959 368.799C335.744 365.582 336.676 361.159 339.998 359.124L381.803 335.778C385.327 333.793 389.731 336.155 390.033 340.201L393.557 387.445C393.96 392.923 392.525 398.376 389.479 402.975ZM463.626 333.818L448.752 364.351C447.896 366.11 446.512 367.592 444.8 368.547L416.334 381.489C412.333 383.726 407.374 380.987 407.148 376.413L405.134 331.657C404.933 327.687 408.104 324.395 412.081 324.395L459.423 326.505C463.173 326.505 465.539 330.576 463.652 333.818H463.626ZM518.721 230.611L500.952 299.592C500.348 301.904 498.737 303.813 496.547 304.819L484.063 310.523C481.597 311.654 478.929 312.232 476.211 312.232H408.859C406.015 312.232 403.599 310.196 403.171 307.457L389.278 222.067C388.674 218.297 391.77 214.955 395.621 215.181L512.781 222.544C516.883 222.795 519.753 226.665 518.746 230.611H518.721Z" fill="white"/>
<path d="M537.924 212.14L468.66 78.5764C467.603 76.5912 465.942 74.9578 463.903 73.9777L321.549 4.09218C319.536 3.11212 317.245 2.78544 315.03 3.13726L176.729 26.5078C174.816 26.8345 172.953 27.4627 171.242 28.3674L82.5473 75.586C80.6848 76.5912 79.0489 77.9733 77.7904 79.6821L5.4556 176.557C3.16525 179.623 2.43536 183.543 3.4421 187.237L33.1915 295.018C34.0976 298.26 36.9165 300.597 40.2891 300.848L133.967 307.91C136.056 308.06 137.969 309.191 139.101 310.95L167.064 353.47C168.347 355.405 170.185 356.887 172.349 357.691L249.416 386.766C251.127 387.42 253.015 387.495 254.777 386.967L316.39 370.608C318.202 370.08 320.165 370.709 321.348 372.216L369.269 436.975C372.516 441.147 378.858 440.971 381.879 436.649L402.794 406.041C404.153 403.98 406.066 402.322 408.306 401.241L455.119 378.851C456.529 378.172 457.712 377.066 458.442 375.684L485.02 326.355C485.725 325.073 486.807 324.043 488.141 323.44L509.408 315.172C511.044 314.443 512.278 313.011 512.756 311.277L538.805 220.408C539.586 217.619 539.258 214.653 537.899 212.115L537.924 212.14ZM467.251 106.646L511.9 196.661C512.378 197.616 512.756 198.646 512.907 199.726C513.561 204.225 510.969 207.466 505.91 207.441L403.574 200.455C398.364 200.103 395.52 194.248 398.44 189.926L455.598 105.817C458.492 101.545 464.96 101.972 467.251 106.621V106.646ZM204.062 35.8309L307.128 17.9637C311.884 17.1345 316.792 17.8381 321.121 19.9741L441.805 79.5816C447.468 82.3961 449.406 89.5078 445.908 94.7851L383.112 189.599C380.167 194.047 373.976 194.902 369.923 191.434L201.092 46.5613C197.14 43.1688 198.927 36.7105 204.062 35.8058V35.8309ZM184.883 68.6251C185.538 62.7699 192.459 59.9554 197.04 63.6997L354.042 194.776C358.446 198.369 357.364 205.406 352.054 207.491L172.878 278.181C167.643 280.242 162.08 275.995 162.71 270.416L184.858 68.6251H184.883ZM101.021 291.6L52.8734 289.163C49.677 288.937 46.5812 286.097 45.348 282.478L29.5924 226.64C28.5605 219.428 37.143 214.905 42.5291 219.805L106.432 278.081C111.768 282.931 108.219 291.776 101.021 291.6ZM134.445 282.755L27.4782 188.72C22.7968 184.598 22.0418 177.562 25.7416 172.561L83.7806 94.0563C86.4485 90.4628 89.9217 87.5226 93.9235 85.5122L162.684 50.7328C167.441 48.3203 172.928 52.2154 172.274 57.4675L144.236 279.061C143.632 283.76 138.019 285.896 134.445 282.755ZM252.839 366.185C250.876 368.924 247.302 370.03 244.13 368.849L187.526 347.866C181.284 345.554 176.024 341.206 172.601 335.502L155.788 307.608C153.649 304.065 155.234 299.441 159.11 297.958L336.952 229.203C342.842 226.917 348.077 233.677 344.402 238.803L252.864 366.185H252.839ZM323.689 352.062L291.875 362.491C285.331 364.627 279.87 357.164 283.897 351.61L365.796 238.376C368.64 234.204 375.083 235.561 376.039 240.487L389.001 308.085C389.656 311.453 388.095 314.87 385.125 316.604L326.407 350.906C325.551 351.409 324.62 351.786 323.638 352.062H323.689ZM389.479 402.975L381.803 414.509C378.883 418.882 372.465 418.932 369.496 414.61L337.959 368.799C335.744 365.582 336.676 361.159 339.998 359.124L381.803 335.778C385.327 333.793 389.731 336.155 390.033 340.201L393.557 387.445C393.96 392.923 392.525 398.376 389.479 402.975ZM463.626 333.818L448.752 364.351C447.896 366.11 446.512 367.592 444.8 368.547L416.334 381.489C412.333 383.726 407.374 380.987 407.148 376.413L405.134 331.657C404.933 327.687 408.104 324.395 412.081 324.395L459.423 326.505C463.173 326.505 465.539 330.576 463.652 333.818H463.626ZM518.721 230.611L500.952 299.592C500.348 301.904 498.737 303.813 496.547 304.819L484.063 310.523C481.597 311.654 478.929 312.232 476.211 312.232H408.859C406.015 312.232 403.599 310.196 403.171 307.457L389.278 222.067C388.674 218.297 391.77 214.955 395.621 215.181L512.781 222.544C516.883 222.795 519.753 226.665 518.746 230.611H518.721Z" stroke="white" stroke-width="6" mask="url(#path-2-outside-1_526_5)"/>
</svg>
