<svg width="150" height="150" viewBox="0 0 150 150" fill="none" xmlns="http://www.w3.org/2000/svg">
<path d="M46.2621 16.1255C48.8308 15.9031 53.7236 16.0436 56.4313 16.0458L75.4485 16.0525L94.6237 16.0462C102.826 16.0453 109.248 15.5427 116.808 19.4898C124.113 23.3035 128.983 28.9929 131.528 36.7555C134.023 44.5061 133.302 52.9219 129.524 60.1448C125.918 67.0679 118.707 72.6359 111.288 74.9936C115.093 75.9704 120.187 79.0803 123.089 81.6564C135.615 92.7772 136.286 112.073 124.998 124.312C119.687 130.02 112.332 133.442 104.507 133.845C101.706 134.094 97.1303 133.968 94.2552 133.969L75.641 133.966L56.8519 133.979C47.8351 133.981 39.9553 134.372 31.9686 129.283C25.7758 125.336 20.3267 118.351 18.779 111.168C17.1692 103.694 17.9219 94.8708 22.2852 88.415C25.7388 83.2635 28.656 80.309 34.208 77.3879C36.1263 76.3786 37.821 75.5071 39.9594 75.0434C36.1833 74.099 31.1999 71.0732 28.2876 68.5787C22.249 63.4925 18.5652 56.1865 18.0871 48.3481C16.895 31.4413 29.2066 17.3136 46.2621 16.1255Z" fill="#67922F"/>
</svg>
