<svg width="150" height="150" viewBox="0 0 150 150" fill="none" xmlns="http://www.w3.org/2000/svg">
<path d="M74.1321 15C83.1541 15.1626 88.3501 30.4428 90.0827 37.6064C94.6628 33.5731 110.139 27.6445 115.754 31.7595C123.02 37.0848 115.796 53.4283 111.768 59.2256C118.163 61.051 131.896 65.3388 133.8 72.7105C136.362 82.6293 119.152 88.1808 111.969 90.1354C114.511 94.3355 117.195 100.539 118.325 105.273C123.245 125.887 99.8291 118.855 89.9882 111.926C88.8396 116.93 86.9762 121.742 84.4551 126.214C82.3472 129.885 79.6635 133.226 75.4324 134.376C66.2002 134.684 60.9509 119.243 59.0501 111.991C42.9492 122.509 22.1165 123.601 33.3092 97.8272C34.2753 95.6024 35.7803 92.1293 37.2105 90.2512C31.0473 88.7646 16.7893 83.3951 15.2081 76.55C12.9229 66.657 30.0597 61.2048 37.3222 59.2018C34.7107 55.8264 30.7969 45.9715 30.4558 41.7278C30.0438 39.0785 30.2129 35.214 32.0359 33.0523C37.5339 26.5331 53.7751 33.3965 58.8283 37.5119C59.262 36.5569 59.6125 35.4685 59.9339 34.4648C61.9946 28.0288 66.1884 16.0893 74.1321 15Z" fill="#ADE366"/>
</svg>
