<svg width="150" height="150" viewBox="0 0 150 150" fill="none" xmlns="http://www.w3.org/2000/svg">
<path d="M73.0723 18.0914C82.5521 17.0571 86.8264 24.9881 90.9675 32.5184C93.5148 37.1503 95.9098 41.7389 98.3721 46.4168L111.153 70.421L123.718 93.8176C126.788 99.5987 132.753 109.149 132.993 115.764C133.223 122.079 127.44 130.043 121.564 131.137C115.915 132.19 108.496 131.982 102.578 131.985L76.3644 131.986L46.6792 131.987C40.8747 131.984 34.8853 132.102 29.1292 131.535C22.3716 130.869 16.6384 124.362 16.0498 117.17C15.4609 109.972 20.2258 103.015 23.3077 97.0207C27.532 88.8039 32.0377 80.7554 36.36 72.6107L45.7047 54.9757C49.0607 48.6923 52.4088 42.3766 55.8459 36.1451C60.0916 28.4473 63.6096 19.0241 73.0723 18.0914Z" fill="#314719"/>
</svg>
