<svg width="1531" height="164" viewBox="0 0 1531 164" fill="none" xmlns="http://www.w3.org/2000/svg">
<path d="M144.795 159.649H118.167L33.6002 61.5928C33.6002 61.5928 31.6622 61.2661 31.6622 62.2461V159.649H0V4.69925C0 4.69925 0.478243 3.56844 1.13263 3.56844H25.9741C25.9741 3.56844 26.6284 3.5684 26.9556 4.04587L111.195 104.363C111.195 104.363 113.133 104.69 113.133 103.71V19.4252C113.133 10.5042 120.281 3.36739 129.216 3.36739H143.663C143.663 3.36739 144.795 3.84483 144.795 4.4982V159.649Z" fill="white"/>
<path d="M292.032 159.649H197.398C187.985 159.649 180.51 152.034 180.51 142.787V3.39253H291.554V32.0906H212.172V67.2721H271.092V95.4675H212.172V130.976H292.032V159.674V159.649Z" fill="white"/>
<path d="M459.882 89.7883C459.882 133.539 433.103 163.217 392.682 163.217C352.261 163.217 323.846 133.564 323.846 89.7883V3.39253H339.928C348.536 3.39253 355.508 10.3534 355.508 18.9478V89.6123C355.508 115.697 370.282 132.735 392.531 132.735C414.78 132.735 427.918 115.722 427.918 89.6123V3.39253H459.58V89.6123L459.908 89.7631L459.882 89.7883Z" fill="white"/>
<path d="M580.994 159.649L536.672 102.278H520.111V159.649H488.449V19.9278C488.449 10.856 495.924 3.39253 505.01 3.39253H556.152C589.753 3.39253 612.153 23.1696 612.153 52.8225C612.153 78.9071 599.015 97.5533 571.732 101.599L619.779 159.623H580.994V159.649ZM556.001 73.5796C570.775 73.5796 580.516 65.1612 580.516 52.8225C580.516 40.4839 570.775 32.0654 556.001 32.0654H520.136V73.5545H556.001V73.5796Z" fill="white"/>
<path d="M1120.26 159.649L1075.94 102.278H1059.38V159.649H1027.71V19.9278C1027.71 10.856 1035.19 3.39253 1044.27 3.39253H1095.42C1129.02 3.39253 1151.42 23.1696 1151.42 52.8225C1151.42 78.9071 1138.28 97.5533 1111 101.599L1159.04 159.623H1120.26V159.649ZM1095.27 73.5796C1110.04 73.5796 1119.78 65.1612 1119.78 52.8225C1119.78 40.4839 1110.04 32.0654 1095.27 32.0654H1059.4V73.5545H1095.27V73.5796Z" fill="white"/>
<path d="M805.499 81.8472C805.499 127.231 769.307 163.217 723.198 163.217C677.089 163.217 640.896 127.407 640.896 81.8472C640.896 36.2872 677.089 0 723.198 0C769.307 0 805.499 36.3123 805.499 81.8472ZM773.686 81.8472C773.686 52.0184 751.613 29.8289 723.374 29.8289C695.134 29.8289 673.061 52.0435 673.061 81.8472C673.061 111.651 695.134 133.388 723.374 133.388C751.613 133.388 773.686 111.676 773.686 81.8472Z" fill="white"/>
<path d="M982.762 68.5536C990.237 68.5536 996.227 74.7104 996.227 81.998C996.227 128.362 959.531 163.041 913.271 163.041C867.011 163.041 830.315 127.382 830.315 81.5205C830.315 35.659 866.508 0 912.466 0C945.411 0 980.648 20.7571 991.521 46.0375H951.754C944.606 35.1815 929.505 29.8289 912.466 29.8289C884.554 29.8289 862.632 52.1943 862.632 81.5205C862.632 110.847 885.208 133.539 914.404 133.539C943.599 133.539 962.778 110.998 961.318 89.2856H906.45V76.1679C906.45 71.9461 909.848 68.5536 914.076 68.5536H982.762Z" fill="white"/>
<path d="M1304.34 159.649L1290.88 126.251H1221.89L1208.1 159.649H1173.84L1237.14 13.4444C1239.73 7.4384 1245.75 3.56844 1252.24 3.56844H1271.07L1338.77 159.825H1304.52L1304.34 159.649ZM1254.51 46.3391L1233.57 97.5533H1279.02L1258.23 46.3391C1257.58 44.7308 1255.31 44.7308 1254.51 46.3391Z" fill="white"/>
<path d="M1530.31 159.649H1499.48V77.3239C1499.48 75.3889 1496.88 74.7356 1495.9 76.3439L1450.45 159.649H1436.15L1386.97 69.8604V159.649H1356.14V3.39253H1383.9L1443.15 111.349L1496.56 14.4245C1500.28 7.61432 1507.43 3.39253 1515.23 3.39253H1530.16V159.649H1530.31Z" fill="white"/>
</svg>
