<svg width="541" height="441" viewBox="0 0 541 441" fill="none" xmlns="http://www.w3.org/2000/svg">
<mask id="path-1-outside-1_526_2" maskUnits="userSpaceOnUse" x="0" y="0" width="541" height="441" fill="black">
<rect fill="white" width="541" height="441"/>
<path d="M536.924 211.14L467.66 77.5764C466.603 75.5912 464.942 73.9578 462.903 72.9777L320.549 3.09218C318.536 2.11212 316.245 1.78544 314.03 2.13726L175.729 25.5078C173.816 25.8345 171.953 26.4627 170.242 27.3674L81.5473 74.586C79.6848 75.5912 78.0489 76.9733 76.7904 78.6821L4.4556 175.557C2.16525 178.623 1.43536 182.543 2.4421 186.237L32.1915 294.018C33.0976 297.26 35.9165 299.597 39.2891 299.848L132.967 306.91C135.056 307.06 136.969 308.191 138.101 309.95L166.064 352.47C167.347 354.405 169.185 355.887 171.349 356.691L248.416 385.766C250.127 386.42 252.015 386.495 253.777 385.967L315.39 369.608C317.202 369.08 319.165 369.709 320.348 371.216L368.269 435.975C371.516 440.147 377.858 439.971 380.879 435.649L401.794 405.041C403.153 402.98 405.066 401.322 407.306 400.241L454.119 377.851C455.529 377.172 456.712 376.066 457.442 374.684L484.02 325.355C484.725 324.073 485.807 323.043 487.141 322.44L508.408 314.172C510.044 313.443 511.278 312.011 511.756 310.277L537.805 219.408C538.586 216.619 538.258 213.653 536.899 211.115L536.924 211.14ZM466.251 105.646L510.9 195.661C511.378 196.616 511.756 197.646 511.907 198.726C512.561 203.225 509.969 206.466 504.91 206.441L402.574 199.455C397.364 199.103 394.52 193.248 397.44 188.926L454.598 104.817C457.492 100.545 463.96 100.972 466.251 105.621V105.646ZM203.062 34.8309L306.128 16.9637C310.884 16.1345 315.792 16.8381 320.121 18.9741L440.805 78.5816C446.468 81.3961 448.406 88.5078 444.908 93.7851L382.112 188.599C379.167 193.047 372.976 193.902 368.923 190.434L200.092 45.5613C196.14 42.1688 197.927 35.7105 203.062 34.8058V34.8309ZM183.883 67.6251C184.538 61.7699 191.459 58.9554 196.04 62.6997L353.042 193.776C357.446 197.369 356.364 204.406 351.054 206.491L171.878 277.181C166.643 279.242 161.08 274.995 161.71 269.416L183.858 67.6251H183.883ZM100.021 290.6L51.8734 288.163C48.677 287.937 45.5812 285.097 44.348 281.478L28.5924 225.64C27.5605 218.428 36.143 213.905 41.5291 218.805L105.432 277.081C110.768 281.931 107.219 290.776 100.021 290.6ZM133.445 281.755L26.4782 187.72C21.7968 183.598 21.0418 176.562 24.7416 171.561L82.7806 93.0563C85.4485 89.4628 88.9217 86.5226 92.9235 84.5122L161.684 49.7328C166.441 47.3203 171.928 51.2154 171.274 56.4675L143.236 278.061C142.632 282.76 137.019 284.896 133.445 281.755ZM251.839 365.185C249.876 367.924 246.302 369.03 243.13 367.849L186.526 346.866C180.284 344.554 175.024 340.206 171.601 334.502L154.788 306.608C152.649 303.065 154.234 298.441 158.11 296.958L335.952 228.203C341.842 225.917 347.077 232.677 343.402 237.803L251.864 365.185H251.839ZM322.689 351.062L290.875 361.491C284.331 363.627 278.87 356.164 282.897 350.61L364.796 237.376C367.64 233.204 374.083 234.561 375.039 239.487L388.001 307.085C388.656 310.453 387.095 313.87 384.125 315.604L325.407 349.906C324.551 350.409 323.62 350.786 322.638 351.062H322.689ZM388.479 401.975L380.803 413.509C377.883 417.882 371.465 417.932 368.496 413.61L336.959 367.799C334.744 364.582 335.676 360.159 338.998 358.124L380.803 334.778C384.327 332.793 388.731 335.155 389.033 339.201L392.557 386.445C392.96 391.923 391.525 397.376 388.479 401.975ZM462.626 332.818L447.752 363.351C446.896 365.11 445.512 366.592 443.8 367.547L415.334 380.489C411.333 382.726 406.374 379.987 406.148 375.413L404.134 330.657C403.933 326.687 407.104 323.395 411.081 323.395L458.423 325.505C462.173 325.505 464.539 329.576 462.652 332.818H462.626ZM517.721 229.611L499.952 298.592C499.348 300.904 497.737 302.813 495.547 303.819L483.063 309.523C480.597 310.654 477.929 311.232 475.211 311.232H407.859C405.015 311.232 402.599 309.196 402.171 306.457L388.278 221.067C387.674 217.297 390.77 213.955 394.621 214.181L511.781 221.544C515.883 221.795 518.753 225.665 517.746 229.611H517.721Z"/>
</mask>
<path d="M536.924 211.14L467.66 77.5764C466.603 75.5912 464.942 73.9578 462.903 72.9777L320.549 3.09218C318.536 2.11212 316.245 1.78544 314.03 2.13726L175.729 25.5078C173.816 25.8345 171.953 26.4627 170.242 27.3674L81.5473 74.586C79.6848 75.5912 78.0489 76.9733 76.7904 78.6821L4.4556 175.557C2.16525 178.623 1.43536 182.543 2.4421 186.237L32.1915 294.018C33.0976 297.26 35.9165 299.597 39.2891 299.848L132.967 306.91C135.056 307.06 136.969 308.191 138.101 309.95L166.064 352.47C167.347 354.405 169.185 355.887 171.349 356.691L248.416 385.766C250.127 386.42 252.015 386.495 253.777 385.967L315.39 369.608C317.202 369.08 319.165 369.709 320.348 371.216L368.269 435.975C371.516 440.147 377.858 439.971 380.879 435.649L401.794 405.041C403.153 402.98 405.066 401.322 407.306 400.241L454.119 377.851C455.529 377.172 456.712 376.066 457.442 374.684L484.02 325.355C484.725 324.073 485.807 323.043 487.141 322.44L508.408 314.172C510.044 313.443 511.278 312.011 511.756 310.277L537.805 219.408C538.586 216.619 538.258 213.653 536.899 211.115L536.924 211.14ZM466.251 105.646L510.9 195.661C511.378 196.616 511.756 197.646 511.907 198.726C512.561 203.225 509.969 206.466 504.91 206.441L402.574 199.455C397.364 199.103 394.52 193.248 397.44 188.926L454.598 104.817C457.492 100.545 463.96 100.972 466.251 105.621V105.646ZM203.062 34.8309L306.128 16.9637C310.884 16.1345 315.792 16.8381 320.121 18.9741L440.805 78.5816C446.468 81.3961 448.406 88.5078 444.908 93.7851L382.112 188.599C379.167 193.047 372.976 193.902 368.923 190.434L200.092 45.5613C196.14 42.1688 197.927 35.7105 203.062 34.8058V34.8309ZM183.883 67.6251C184.538 61.7699 191.459 58.9554 196.04 62.6997L353.042 193.776C357.446 197.369 356.364 204.406 351.054 206.491L171.878 277.181C166.643 279.242 161.08 274.995 161.71 269.416L183.858 67.6251H183.883ZM100.021 290.6L51.8734 288.163C48.677 287.937 45.5812 285.097 44.348 281.478L28.5924 225.64C27.5605 218.428 36.143 213.905 41.5291 218.805L105.432 277.081C110.768 281.931 107.219 290.776 100.021 290.6ZM133.445 281.755L26.4782 187.72C21.7968 183.598 21.0418 176.562 24.7416 171.561L82.7806 93.0563C85.4485 89.4628 88.9217 86.5226 92.9235 84.5122L161.684 49.7328C166.441 47.3203 171.928 51.2154 171.274 56.4675L143.236 278.061C142.632 282.76 137.019 284.896 133.445 281.755ZM251.839 365.185C249.876 367.924 246.302 369.03 243.13 367.849L186.526 346.866C180.284 344.554 175.024 340.206 171.601 334.502L154.788 306.608C152.649 303.065 154.234 298.441 158.11 296.958L335.952 228.203C341.842 225.917 347.077 232.677 343.402 237.803L251.864 365.185H251.839ZM322.689 351.062L290.875 361.491C284.331 363.627 278.87 356.164 282.897 350.61L364.796 237.376C367.64 233.204 374.083 234.561 375.039 239.487L388.001 307.085C388.656 310.453 387.095 313.87 384.125 315.604L325.407 349.906C324.551 350.409 323.62 350.786 322.638 351.062H322.689ZM388.479 401.975L380.803 413.509C377.883 417.882 371.465 417.932 368.496 413.61L336.959 367.799C334.744 364.582 335.676 360.159 338.998 358.124L380.803 334.778C384.327 332.793 388.731 335.155 389.033 339.201L392.557 386.445C392.96 391.923 391.525 397.376 388.479 401.975ZM462.626 332.818L447.752 363.351C446.896 365.11 445.512 366.592 443.8 367.547L415.334 380.489C411.333 382.726 406.374 379.987 406.148 375.413L404.134 330.657C403.933 326.687 407.104 323.395 411.081 323.395L458.423 325.505C462.173 325.505 464.539 329.576 462.652 332.818H462.626ZM517.721 229.611L499.952 298.592C499.348 300.904 497.737 302.813 495.547 303.819L483.063 309.523C480.597 310.654 477.929 311.232 475.211 311.232H407.859C405.015 311.232 402.599 309.196 402.171 306.457L388.278 221.067C387.674 217.297 390.77 213.955 394.621 214.181L511.781 221.544C515.883 221.795 518.753 225.665 517.746 229.611H517.721Z" fill="#64A62D"/>
<path d="M536.924 211.14L467.66 77.5764C466.603 75.5912 464.942 73.9578 462.903 72.9777L320.549 3.09218C318.536 2.11212 316.245 1.78544 314.03 2.13726L175.729 25.5078C173.816 25.8345 171.953 26.4627 170.242 27.3674L81.5473 74.586C79.6848 75.5912 78.0489 76.9733 76.7904 78.6821L4.4556 175.557C2.16525 178.623 1.43536 182.543 2.4421 186.237L32.1915 294.018C33.0976 297.26 35.9165 299.597 39.2891 299.848L132.967 306.91C135.056 307.06 136.969 308.191 138.101 309.95L166.064 352.47C167.347 354.405 169.185 355.887 171.349 356.691L248.416 385.766C250.127 386.42 252.015 386.495 253.777 385.967L315.39 369.608C317.202 369.08 319.165 369.709 320.348 371.216L368.269 435.975C371.516 440.147 377.858 439.971 380.879 435.649L401.794 405.041C403.153 402.98 405.066 401.322 407.306 400.241L454.119 377.851C455.529 377.172 456.712 376.066 457.442 374.684L484.02 325.355C484.725 324.073 485.807 323.043 487.141 322.44L508.408 314.172C510.044 313.443 511.278 312.011 511.756 310.277L537.805 219.408C538.586 216.619 538.258 213.653 536.899 211.115L536.924 211.14ZM466.251 105.646L510.9 195.661C511.378 196.616 511.756 197.646 511.907 198.726C512.561 203.225 509.969 206.466 504.91 206.441L402.574 199.455C397.364 199.103 394.52 193.248 397.44 188.926L454.598 104.817C457.492 100.545 463.96 100.972 466.251 105.621V105.646ZM203.062 34.8309L306.128 16.9637C310.884 16.1345 315.792 16.8381 320.121 18.9741L440.805 78.5816C446.468 81.3961 448.406 88.5078 444.908 93.7851L382.112 188.599C379.167 193.047 372.976 193.902 368.923 190.434L200.092 45.5613C196.14 42.1688 197.927 35.7105 203.062 34.8058V34.8309ZM183.883 67.6251C184.538 61.7699 191.459 58.9554 196.04 62.6997L353.042 193.776C357.446 197.369 356.364 204.406 351.054 206.491L171.878 277.181C166.643 279.242 161.08 274.995 161.71 269.416L183.858 67.6251H183.883ZM100.021 290.6L51.8734 288.163C48.677 287.937 45.5812 285.097 44.348 281.478L28.5924 225.64C27.5605 218.428 36.143 213.905 41.5291 218.805L105.432 277.081C110.768 281.931 107.219 290.776 100.021 290.6ZM133.445 281.755L26.4782 187.72C21.7968 183.598 21.0418 176.562 24.7416 171.561L82.7806 93.0563C85.4485 89.4628 88.9217 86.5226 92.9235 84.5122L161.684 49.7328C166.441 47.3203 171.928 51.2154 171.274 56.4675L143.236 278.061C142.632 282.76 137.019 284.896 133.445 281.755ZM251.839 365.185C249.876 367.924 246.302 369.03 243.13 367.849L186.526 346.866C180.284 344.554 175.024 340.206 171.601 334.502L154.788 306.608C152.649 303.065 154.234 298.441 158.11 296.958L335.952 228.203C341.842 225.917 347.077 232.677 343.402 237.803L251.864 365.185H251.839ZM322.689 351.062L290.875 361.491C284.331 363.627 278.87 356.164 282.897 350.61L364.796 237.376C367.64 233.204 374.083 234.561 375.039 239.487L388.001 307.085C388.656 310.453 387.095 313.87 384.125 315.604L325.407 349.906C324.551 350.409 323.62 350.786 322.638 351.062H322.689ZM388.479 401.975L380.803 413.509C377.883 417.882 371.465 417.932 368.496 413.61L336.959 367.799C334.744 364.582 335.676 360.159 338.998 358.124L380.803 334.778C384.327 332.793 388.731 335.155 389.033 339.201L392.557 386.445C392.96 391.923 391.525 397.376 388.479 401.975ZM462.626 332.818L447.752 363.351C446.896 365.11 445.512 366.592 443.8 367.547L415.334 380.489C411.333 382.726 406.374 379.987 406.148 375.413L404.134 330.657C403.933 326.687 407.104 323.395 411.081 323.395L458.423 325.505C462.173 325.505 464.539 329.576 462.652 332.818H462.626ZM517.721 229.611L499.952 298.592C499.348 300.904 497.737 302.813 495.547 303.819L483.063 309.523C480.597 310.654 477.929 311.232 475.211 311.232H407.859C405.015 311.232 402.599 309.196 402.171 306.457L388.278 221.067C387.674 217.297 390.77 213.955 394.621 214.181L511.781 221.544C515.883 221.795 518.753 225.665 517.746 229.611H517.721Z" stroke="#64A62D" stroke-width="4" mask="url(#path-1-outside-1_526_2)"/>
</svg>
