<svg preserveAspectRatio="none" width="100%" height="100%" overflow="visible" style="display: block;" viewBox="0 0 69 69" fill="none" xmlns="http://www.w3.org/2000/svg">
<g id="LOGO">
<g id="Vector">
<path d="M56.661 33.7147L50.8996 22.5087C50.8117 22.3421 50.6735 22.2051 50.5039 22.1228L38.663 16.2594C38.4956 16.1772 38.305 16.1498 38.1208 16.1793L26.617 18.1401C26.4579 18.1675 26.3029 18.2202 26.1606 18.2961L18.783 22.2578C18.6281 22.3421 18.4921 22.4581 18.3874 22.6014L12.3706 30.7293C12.1801 30.9865 12.1194 31.3154 12.2031 31.6253L14.6777 40.6682C14.753 40.9402 14.9875 41.1363 15.268 41.1573L23.0601 41.7498C23.2339 41.7624 23.393 41.8573 23.4871 42.0049L25.8131 45.5723C25.9198 45.7347 26.0727 45.859 26.2527 45.9265L32.6631 48.3659C32.8054 48.4207 32.9624 48.427 33.109 48.3827L38.2339 47.0102C38.3846 46.9659 38.5479 47.0187 38.6463 47.1451L42.6324 52.5784C42.9024 52.9284 43.43 52.9137 43.6812 52.551L45.4209 49.983C45.534 49.8101 45.6931 49.671 45.8794 49.5803L49.7733 47.7018C49.8906 47.6448 49.989 47.552 50.0497 47.4361L52.2604 43.2974C52.3191 43.1898 52.4091 43.1034 52.52 43.0528L54.289 42.3591C54.4251 42.2979 54.5277 42.1778 54.5675 42.0323L56.7342 34.4084C56.7992 34.1744 56.7719 33.9255 56.6589 33.7126L56.661 33.7147ZM50.7824 24.8637L54.4963 32.416C54.5361 32.4961 54.5675 32.5825 54.5801 32.6732C54.6345 33.0506 54.4189 33.3225 53.9981 33.3204L45.4858 32.7343C45.0525 32.7048 44.8159 32.2136 45.0588 31.8509L49.8131 24.7942C50.0539 24.4357 50.5919 24.4716 50.7824 24.8616V24.8637ZM28.8906 18.9223L37.4635 17.4233C37.8591 17.3537 38.2674 17.4127 38.6274 17.5919L48.6658 22.593C49.1369 22.8292 49.2981 23.4258 49.0071 23.8686L43.7838 31.8235C43.5388 32.1967 43.0239 32.2684 42.6868 31.9775L28.6435 19.8226C28.3148 19.538 28.4634 18.9961 28.8906 18.9202V18.9223ZM27.2953 21.6738C27.3497 21.1825 27.9254 20.9464 28.3065 21.2605L41.3658 32.2579C41.7321 32.5593 41.6421 33.1497 41.2004 33.3246L26.2967 39.2555C25.8612 39.4285 25.3985 39.0721 25.4509 38.6041L27.2932 21.6738H27.2953ZM20.3197 40.3814L16.3148 40.1769C16.0489 40.158 15.7914 39.9197 15.6888 39.6161L14.3783 34.9312C14.2925 34.3262 15.0063 33.9467 15.4544 34.3578L20.7698 39.2472C21.2136 39.6541 20.9184 40.3962 20.3197 40.3814ZM23.0999 39.6393L14.2024 31.7498C13.813 31.4039 13.7502 30.8136 14.058 30.394L18.8856 23.8074C19.1075 23.5059 19.3964 23.2593 19.7293 23.0906L25.4488 20.1726C25.8444 19.9702 26.3009 20.297 26.2465 20.7376L23.9143 39.3294C23.864 39.7236 23.3971 39.9028 23.0999 39.6393ZM32.9478 46.6391C32.7845 46.8689 32.4872 46.9617 32.2234 46.8626L27.5151 45.1021C26.9959 44.9082 26.5584 44.5434 26.2737 44.0648L24.8752 41.7245C24.6972 41.4272 24.8291 41.0393 25.1515 40.9148L39.9443 35.1463C40.4342 34.9545 40.8696 35.5217 40.5639 35.9517L32.9499 46.6391H32.9478ZM38.841 45.4542L36.1948 46.3292C35.6505 46.5084 35.1962 45.8822 35.5312 45.4163L42.3435 35.9159C42.58 35.5659 43.116 35.6797 43.1955 36.093L44.2737 41.7645C44.3281 42.0471 44.1983 42.3338 43.9512 42.4792L39.0671 45.3572C38.9959 45.3994 38.9185 45.431 38.8368 45.4542H38.841ZM44.3134 49.7258L43.6749 50.6935C43.432 51.0604 42.8982 51.0646 42.6512 50.702L40.028 46.8584C39.8438 46.5885 39.9213 46.2174 40.1976 46.0467L43.6749 44.088C43.968 43.9214 44.3344 44.1196 44.3595 44.459L44.6526 48.4228C44.6861 48.8824 44.5668 49.3399 44.3134 49.7258ZM50.4809 43.9235L49.2437 46.4852C49.1725 46.6328 49.0574 46.7572 48.915 46.8373L46.5472 47.9231C46.2144 48.1108 45.8019 47.881 45.7831 47.4972L45.6156 43.7422C45.5989 43.4091 45.8626 43.1329 46.1934 43.1329L50.1313 43.3099C50.4432 43.3099 50.64 43.6515 50.4831 43.9235H50.4809ZM55.0637 35.2644L53.5857 41.0519C53.5354 41.2459 53.4014 41.4061 53.2192 41.4905L52.1808 41.9691C51.9757 42.0639 51.7538 42.1124 51.5277 42.1124H45.9254C45.6889 42.1124 45.4879 41.9416 45.4523 41.7118L44.2967 34.5476C44.2465 34.2313 44.504 33.9509 44.8243 33.9698L54.5696 34.5876C54.9108 34.6087 55.1495 34.9333 55.0657 35.2644H55.0637Z" fill="var(--fill-0, white)"/>
<path d="M56.661 33.7147L50.8996 22.5087C50.8117 22.3421 50.6735 22.2051 50.5039 22.1228L38.663 16.2594C38.4956 16.1772 38.305 16.1498 38.1208 16.1793L26.617 18.1401C26.4579 18.1675 26.3029 18.2202 26.1606 18.2961L18.783 22.2578C18.6281 22.3421 18.4921 22.4581 18.3874 22.6014L12.3706 30.7293C12.1801 30.9865 12.1194 31.3154 12.2031 31.6253L14.6777 40.6682C14.753 40.9402 14.9875 41.1363 15.268 41.1573L23.0601 41.7498C23.2339 41.7624 23.393 41.8573 23.4871 42.0049L25.8131 45.5723C25.9198 45.7347 26.0727 45.859 26.2527 45.9265L32.6631 48.3659C32.8054 48.4207 32.9624 48.427 33.109 48.3827L38.2339 47.0102C38.3846 46.9659 38.5479 47.0187 38.6463 47.1451L42.6324 52.5784C42.9024 52.9284 43.43 52.9137 43.6812 52.551L45.4209 49.983C45.534 49.8101 45.6931 49.671 45.8794 49.5803L49.7733 47.7018C49.8906 47.6448 49.989 47.552 50.0497 47.4361L52.2604 43.2974C52.3191 43.1898 52.4091 43.1034 52.52 43.0528L54.289 42.3591C54.4251 42.2979 54.5277 42.1778 54.5675 42.0323L56.7342 34.4084C56.7992 34.1744 56.7719 33.9255 56.6589 33.7126L56.661 33.7147ZM50.7824 24.8637L54.4963 32.416C54.5361 32.4961 54.5675 32.5825 54.5801 32.6732C54.6345 33.0506 54.4189 33.3225 53.9981 33.3204L45.4858 32.7343C45.0525 32.7048 44.8159 32.2136 45.0588 31.8509L49.8131 24.7942C50.0539 24.4357 50.5919 24.4716 50.7824 24.8616V24.8637ZM28.8906 18.9223L37.4635 17.4233C37.8591 17.3537 38.2674 17.4127 38.6274 17.5919L48.6658 22.593C49.1369 22.8292 49.2981 23.4258 49.0071 23.8686L43.7838 31.8235C43.5388 32.1967 43.0239 32.2684 42.6868 31.9775L28.6435 19.8226C28.3148 19.538 28.4634 18.9961 28.8906 18.9202V18.9223ZM27.2953 21.6738C27.3497 21.1825 27.9254 20.9464 28.3065 21.2605L41.3658 32.2579C41.7321 32.5593 41.6421 33.1497 41.2004 33.3246L26.2967 39.2555C25.8612 39.4285 25.3985 39.0721 25.4509 38.6041L27.2932 21.6738H27.2953ZM20.3197 40.3814L16.3148 40.1769C16.0489 40.158 15.7914 39.9197 15.6888 39.6161L14.3783 34.9312C14.2925 34.3262 15.0063 33.9467 15.4544 34.3578L20.7698 39.2472C21.2136 39.6541 20.9184 40.3962 20.3197 40.3814ZM23.0999 39.6393L14.2024 31.7498C13.813 31.4039 13.7502 30.8136 14.058 30.394L18.8856 23.8074C19.1075 23.5059 19.3964 23.2593 19.7293 23.0906L25.4488 20.1726C25.8444 19.9702 26.3009 20.297 26.2465 20.7376L23.9143 39.3294C23.864 39.7236 23.3971 39.9028 23.0999 39.6393ZM32.9478 46.6391C32.7845 46.8689 32.4872 46.9617 32.2234 46.8626L27.5151 45.1021C26.9959 44.9082 26.5584 44.5434 26.2737 44.0648L24.8752 41.7245C24.6972 41.4272 24.8291 41.0393 25.1515 40.9148L39.9443 35.1463C40.4342 34.9545 40.8696 35.5217 40.5639 35.9517L32.9499 46.6391H32.9478ZM38.841 45.4542L36.1948 46.3292C35.6505 46.5084 35.1962 45.8822 35.5312 45.4163L42.3435 35.9159C42.58 35.5659 43.116 35.6797 43.1955 36.093L44.2737 41.7645C44.3281 42.0471 44.1983 42.3338 43.9512 42.4792L39.0671 45.3572C38.9959 45.3994 38.9185 45.431 38.8368 45.4542H38.841ZM44.3134 49.7258L43.6749 50.6935C43.432 51.0604 42.8982 51.0646 42.6512 50.702L40.028 46.8584C39.8438 46.5885 39.9213 46.2174 40.1976 46.0467L43.6749 44.088C43.968 43.9214 44.3344 44.1196 44.3595 44.459L44.6526 48.4228C44.6861 48.8824 44.5668 49.3399 44.3134 49.7258ZM50.4809 43.9235L49.2437 46.4852C49.1725 46.6328 49.0574 46.7572 48.915 46.8373L46.5472 47.9231C46.2144 48.1108 45.8019 47.881 45.7831 47.4972L45.6156 43.7422C45.5989 43.4091 45.8626 43.1329 46.1934 43.1329L50.1313 43.3099C50.4432 43.3099 50.64 43.6515 50.4831 43.9235H50.4809ZM55.0637 35.2644L53.5857 41.0519C53.5354 41.2459 53.4014 41.4061 53.2192 41.4905L52.1808 41.9691C51.9757 42.0639 51.7538 42.1124 51.5277 42.1124H45.9254C45.6889 42.1124 45.4879 41.9416 45.4523 41.7118L44.2967 34.5476C44.2465 34.2313 44.504 33.9509 44.8243 33.9698L54.5696 34.5876C54.9108 34.6087 55.1495 34.9333 55.0657 35.2644H55.0637Z" fill="var(--fill-0, white)"/>
<path d="M38.0947 16.0136C38.2983 15.981 38.5089 16.0072 38.6983 16.091L38.7359 16.1086L38.7364 16.1088L50.5759 21.9716C50.766 22.0637 50.9219 22.2128 51.0263 22.3933L51.0465 22.4298L51.0469 22.4307L51.0473 22.4314L56.8086 33.6375L56.8079 33.638C56.9392 33.8881 56.9705 34.1796 56.8944 34.4536L56.8942 34.4546L54.7278 42.0768C54.6749 42.2707 54.5382 42.4308 54.3567 42.5124L54.353 42.514L54.3493 42.5155L52.5863 43.2068C52.5107 43.2418 52.4479 43.3017 52.4062 43.3782L50.1962 47.5157L50.196 47.5156C50.1178 47.6643 49.9927 47.7815 49.8454 47.853L49.8451 47.8532L45.9512 49.7317C45.7916 49.8095 45.6559 49.9285 45.5598 50.0754L45.5591 50.0765L45.5583 50.0777L43.8186 52.6457L43.8176 52.6472C43.5024 53.1021 42.8401 53.1209 42.5011 52.6814L42.4998 52.6799L42.4986 52.6782L38.5154 47.2487L38.5044 47.2355C38.4471 47.1723 38.3602 47.1479 38.2804 47.1713L38.2786 47.1719L38.2766 47.1724L33.1517 48.5449L33.1516 48.5448C32.9713 48.5981 32.7789 48.5899 32.6043 48.5228L26.1939 46.0835C25.9803 46.0032 25.7999 45.8558 25.6745 45.665L25.6741 45.6645L23.3481 42.0971L23.3477 42.0964L23.3472 42.0957C23.2815 41.9927 23.17 41.9261 23.0482 41.9172L23.0476 41.9171L15.2555 41.3247C14.9045 41.2983 14.6115 41.0527 14.5175 40.7134L14.5173 40.7128L12.0428 31.67L12.0426 31.6694C11.9456 31.3102 12.0159 30.9279 12.2374 30.6289L18.254 22.501C18.3741 22.3369 18.5292 22.2053 18.7041 22.1101L18.7049 22.1096L26.0824 18.148L26.0829 18.1478C26.2411 18.0635 26.4129 18.005 26.589 17.9747H26.5893L38.093 16.0138L38.0938 16.0137L38.0947 16.0136ZM38.5645 16.3983C38.435 16.341 38.2895 16.3224 38.1479 16.3449L26.6449 18.3055L26.645 18.3055C26.503 18.33 26.3648 18.3771 26.2384 18.4445L26.2383 18.4444L18.8612 22.4059L18.8612 22.4058C18.7268 22.4791 18.6103 22.5791 18.5213 22.701L18.5206 22.7019L12.5039 30.8297C12.3445 31.045 12.2933 31.3203 12.3635 31.5807L14.8378 40.623C14.8945 40.8276 15.0705 40.9742 15.2804 40.99H15.2805L23.0719 41.5824C23.2972 41.5988 23.5035 41.7213 23.6262 41.9127L25.9521 45.4801C26.0345 45.6052 26.1493 45.7017 26.2835 45.7584L26.3107 45.7692L26.3114 45.7694L32.7218 48.2088L32.7224 48.2091C32.8307 48.2508 32.9501 48.2555 33.0613 48.2219L33.0638 48.2212L33.0663 48.2206L38.1912 46.848C38.3998 46.7884 38.6234 46.8579 38.7638 47.0249L38.7772 47.0415L38.7801 47.0453L42.7645 52.4764C42.9656 52.7356 43.3569 52.7248 43.5442 52.4558L45.2836 49.8884C45.4134 49.6907 45.5952 49.5323 45.8071 49.4292L45.8077 49.4289L49.7011 47.5506C49.788 47.5084 49.8594 47.4403 49.9026 47.3577L49.903 47.3571L49.9033 47.3565L52.114 43.2178L52.1144 43.2171L52.1147 43.2165C52.1898 43.0787 52.3062 42.9661 52.4515 42.8999L52.4556 42.8981L52.4597 42.8964L54.2233 42.2047C54.3129 42.1637 54.3808 42.084 54.4071 41.9877L54.4074 41.9869L54.4076 41.986L56.574 34.3632C56.6274 34.1708 56.605 33.9666 56.5122 33.7918L56.5129 33.7913L50.7528 22.5876L50.7388 22.5623C50.6667 22.4376 50.5598 22.3361 50.4318 22.2741L50.4313 22.2738L50.4306 22.2735L38.5902 16.4103L38.5645 16.3983ZM43.5933 43.9417C43.993 43.7146 44.4912 43.985 44.5254 44.4465L44.8185 48.4103V48.4105C44.8548 48.9074 44.7257 49.4018 44.4521 49.8184L44.4519 49.8188L43.8132 50.7867C43.5054 51.2517 42.8282 51.2579 42.5142 50.7971L39.891 46.9536C39.6529 46.6049 39.7527 46.1249 40.1107 45.9036L40.1135 45.9018L40.1165 45.9002L43.5933 43.9417ZM44.1936 44.4715C44.1775 44.2541 43.9431 44.1282 43.7565 44.2341L43.7561 44.2345L40.2824 46.1911C40.0895 46.3119 40.0351 46.5729 40.165 46.7633L42.7883 50.6068L42.7884 50.607C42.9684 50.8713 43.3587 50.869 43.5366 50.6003L44.175 49.6328C44.408 49.2779 44.5175 48.8574 44.4867 48.4353L44.1936 44.4715ZM46.1972 42.9651L46.2008 42.9653L50.1371 43.1422C50.5725 43.1464 50.8481 43.6245 50.6269 44.0079L50.6165 44.0258L49.3932 46.5586C49.3075 46.7364 49.1688 46.8866 48.996 46.9838L48.99 46.9872L48.9838 46.99L46.6203 48.0739C46.1816 48.314 45.6417 48.011 45.6169 47.5055V47.5048L45.4494 43.7498C45.4284 43.3199 45.7691 42.9651 46.1934 42.9651H46.1972ZM46.191 43.3007C45.9626 43.302 45.7816 43.4866 45.7812 43.7117L45.7818 43.7337V43.7347L45.9493 47.4897C45.9625 47.7482 46.2408 47.9037 46.466 47.7766L46.4721 47.7733L46.4783 47.7703L48.8387 46.6879C48.9485 46.6248 49.0383 46.5275 49.0941 46.4118L50.3613 43.7879C50.406 43.6399 50.2969 43.4777 50.1313 43.4777H50.1276L50.1239 43.4776L46.191 43.3007ZM39.8842 34.9898C40.5283 34.7378 41.1012 35.4839 40.6991 36.0495L40.6991 36.0496L33.0352 46.8069H33.0269C32.8128 47.0459 32.4718 47.1348 32.1655 47.0199L27.4573 45.2595C26.9028 45.0523 26.4353 44.6626 26.131 44.1511L24.7327 41.8111C24.5086 41.4365 24.6625 40.9513 25.0535 40.7742L25.092 40.7581L39.8842 34.9898ZM40.4381 35.8401C40.6287 35.5475 40.335 35.1733 40.0045 35.3027L40.0042 35.3028L25.2115 41.0713L25.211 41.0716C24.9854 41.1587 24.8932 41.43 25.0176 41.6377L25.0176 41.6378L26.4161 43.9782L26.4163 43.9784C26.6814 44.4241 27.0889 44.764 27.5729 44.9448L32.2812 46.7053L32.2815 46.7054C32.4745 46.7779 32.6928 46.7099 32.8126 46.5413L32.8623 46.4713H32.8646L40.4287 35.854L40.4381 35.8401ZM42.2087 35.8176C42.5253 35.3556 43.2291 35.4991 43.3533 36.0351L43.3588 36.0611L43.3588 36.0614L44.4369 41.7325C44.5029 42.0746 44.3526 42.4207 44.0635 42.6067L44.0352 42.6241L39.1511 45.5021L39.151 45.502C39.0691 45.5505 38.982 45.5863 38.8927 45.6124L38.8929 45.6137L36.2466 46.4886L36.2464 46.4887C35.5508 46.7177 34.9658 45.9171 35.3964 45.3179L42.2087 35.8176ZM43.0321 36.1249C42.9806 35.8572 42.6337 35.7844 42.4809 36.0105L42.4783 36.0142L35.666 45.5146L35.6659 45.5148C35.4267 45.8475 35.7502 46.2991 36.1432 46.1697L38.7893 45.2947L38.794 45.3095L38.7918 45.2927C38.8619 45.2728 38.9258 45.2463 38.9828 45.2125L38.9832 45.2123L43.8673 42.3343L43.8846 42.3237C44.0598 42.211 44.15 42.0019 44.1104 41.7965L44.1103 41.7961L43.0321 36.1249ZM44.8341 33.8023H44.8347L54.58 34.4201C55.0228 34.4475 55.3371 34.8704 55.2269 35.3059L55.195 35.4322H55.1926L53.7467 41.0938L53.7466 41.0944C53.6836 41.3376 53.5156 41.5379 53.2887 41.643L53.2884 41.6431L52.25 42.1216C52.023 42.2266 51.7774 42.2803 51.5277 42.2803H45.9255C45.6099 42.2803 45.3372 42.0523 45.2881 41.7388L44.1325 34.5746L44.1324 34.5742C44.0648 34.1484 44.4111 33.7773 44.8341 33.8023ZM44.8146 34.1374C44.5968 34.1245 44.4281 34.3142 44.461 34.5211L45.6165 41.6849L45.6167 41.6859C45.6393 41.8314 45.7682 41.9447 45.9255 41.9447H51.5277C51.7301 41.9447 51.9283 41.9013 52.1115 41.8165L52.1117 41.8164L53.1501 41.3379C53.2788 41.2781 53.3746 41.1689 53.417 41.0364L53.4247 41.0096L54.9026 35.2226L54.9117 35.1868C54.9441 34.9728 54.7862 34.7691 54.5594 34.7551H54.5591L44.8146 34.1374ZM14.2136 34.955C14.1072 34.205 14.9759 33.7324 15.5397 34.2102L15.5663 34.2336L15.5665 34.2338L20.8816 39.123C21.4394 39.6344 21.0683 40.5677 20.3156 40.5492L20.3135 40.5491L20.3113 40.549L16.3064 40.3445L16.3047 40.3444L16.3031 40.3443C15.9518 40.3193 15.6488 40.0177 15.5314 39.6702L15.5299 39.6659L15.5287 39.6617L14.2182 34.9769L14.2152 34.966L14.2136 34.955ZM15.3423 34.4817C15.0112 34.1782 14.4872 34.4552 14.5418 34.8977L15.8471 39.5642C15.9353 39.8227 16.1466 39.9967 16.3265 40.0096L20.3249 40.2137C20.7688 40.2236 20.9874 39.6734 20.6579 39.3713L20.6576 39.3711L15.3423 34.4817ZM25.3737 20.0229C25.8888 19.7595 26.4823 20.1851 26.4115 20.7584L26.4115 20.7587L24.0793 39.3505V39.3508C24.0121 39.878 23.3877 40.1178 22.9901 39.7653L14.0926 31.8757L14.0925 31.8757C13.6456 31.4787 13.5673 30.8055 13.9078 30.3173L13.9243 30.2942L18.7519 23.7077L18.7521 23.7074C18.9892 23.3852 19.2981 23.1212 19.6546 22.9406L25.3737 20.0229ZM26.0813 20.7169C26.1194 20.409 25.8003 20.181 25.524 20.3223L25.5239 20.3223L19.8044 23.2403L19.804 23.2406C19.4947 23.3973 19.2259 23.6267 19.0192 23.9074L14.1917 30.4938C13.9356 30.843 13.9876 31.3353 14.3123 31.6237L23.2097 39.5133C23.4066 39.6878 23.7159 39.5693 23.7492 39.308L26.0813 20.7169ZM27.1606 21.506C27.3167 20.995 27.9474 20.7736 28.3889 21.1124L28.4117 21.1306L28.4124 21.1312L28.413 21.1317L41.471 32.1279L41.4923 32.146C41.9318 32.5334 41.8129 33.2621 41.2614 33.4807L26.3578 39.4116L26.3576 39.4117C25.8063 39.6306 25.219 39.1798 25.2856 38.5852L27.1441 21.506H27.1606ZM28.1997 21.3894C27.9201 21.1606 27.5002 21.3347 27.4605 21.6924L27.4441 21.8416H27.4423L25.6163 38.6223L25.6162 38.6229C25.578 38.9644 25.9161 39.2262 26.2356 39.0994L41.1394 33.1686L41.1396 33.1684C41.4625 33.0405 41.5286 32.6085 41.2606 32.3879L41.2599 32.3873L41.2591 32.3867L28.1997 21.3894ZM49.6755 24.6998C49.9876 24.2354 50.6845 24.2817 50.9316 24.7875L50.9488 24.8226V24.8243L54.6451 32.3409C54.6902 32.4319 54.729 32.5362 54.7448 32.6499C54.7771 32.875 54.731 33.0899 54.5924 33.2497C54.4535 33.4098 54.2432 33.4895 53.9973 33.4883L53.992 33.4882L53.9867 33.4879L45.4745 32.9017C44.9126 32.8633 44.6066 32.2263 44.921 31.757L44.9212 31.7566L49.6755 24.6998ZM50.6194 24.9099C50.4749 24.6602 50.1148 24.6443 49.9509 24.8883L49.9507 24.8885L45.1966 31.9448C45.0252 32.2007 45.1923 32.5462 45.497 32.5669L54.0035 33.1526C54.1756 33.1525 54.2822 33.0976 54.3421 33.0286C54.4027 32.9588 54.4373 32.8493 54.4154 32.6973L54.4153 32.6964C54.4059 32.629 54.3818 32.5603 54.3475 32.4911L54.3473 32.4906L50.6194 24.9099ZM37.4349 17.2579C37.8652 17.1823 38.3093 17.2465 38.701 17.4415L48.7395 22.4425L48.7399 22.4428C49.2911 22.7191 49.4863 23.4117 49.1616 23.9364L49.1458 23.9613L43.9225 31.9161C43.6221 32.3737 42.9914 32.4612 42.5786 32.105L42.5784 32.1048L28.5352 19.9499C28.0991 19.5723 28.2973 18.8552 28.8617 18.7549L29.0569 18.7203V18.7229L37.4349 17.2579ZM38.5538 17.7423C38.2254 17.5789 37.853 17.5251 37.4921 17.5885L37.4919 17.5886L28.9189 19.0877L28.8842 19.0937C28.6219 19.1674 28.5398 19.5117 28.7519 19.6953L42.7949 31.8499L42.8198 31.8703C43.0811 32.0719 43.4614 32.0106 43.6451 31.7309L48.8684 23.7759L48.8685 23.7758C49.1037 23.4179 48.974 22.9352 48.5921 22.7435L38.5538 17.7423Z" fill="var(--fill-0, white)"/>
</g>
</g>
</svg>
